<svg width="437" height="117" viewBox="0 0 437 117" fill="none" xmlns="http://www.w3.org/2000/svg">
<path d="M314.278 27.975C314.11 30.7473 313.522 33.4356 312.514 36.0399C311.548 38.6022 310.099 40.9124 308.167 42.9707C306.277 44.9869 303.861 46.583 300.921 47.7592C297.981 48.9353 294.494 49.5234 290.462 49.5234C286.807 49.5234 283.342 48.9983 280.066 47.9482C276.831 46.8981 273.954 45.3439 271.434 43.2857C268.955 41.1855 267.002 38.6022 265.574 35.5358C264.146 32.4275 263.432 28.8361 263.432 24.7617C263.432 20.6872 264.146 17.1169 265.574 14.0505C267.002 10.9422 268.997 8.3589 271.56 6.30068C274.122 4.20045 277.083 2.62528 280.444 1.57517C283.804 0.525056 287.437 0 291.344 0C296.805 0 301.467 0.819088 305.331 2.45726C309.238 4.05344 312.367 6.25868 314.719 9.07298C317.114 11.8873 318.689 15.1426 319.445 18.839H303.126C302.748 17.6629 301.992 16.6758 300.858 15.8777C299.766 15.0376 298.422 14.4076 296.826 13.9875C295.229 13.5255 293.444 13.2944 291.47 13.2944C289.034 13.2944 286.933 13.7145 285.169 14.5546C283.405 15.3527 282.04 16.5918 281.074 18.272C280.15 19.9522 279.688 22.1154 279.688 24.7617C279.688 27.45 280.213 29.6762 281.263 31.4404C282.355 33.2046 283.888 34.5067 285.862 35.3468C287.879 36.1869 290.252 36.607 292.982 36.607C295.628 36.607 297.981 36.3129 300.039 35.7249C302.097 35.0948 303.756 34.1497 305.016 32.8896C306.319 31.5874 307.117 29.9492 307.411 27.975H314.278ZM293.99 32.3225V23.1235H319.823V48.3892H308.545L306.151 30.3063L308.986 32.3225H293.99Z" fill="#CEFF43"/>
<path d="M246.224 36.544L241.813 37.6151V1.13416H257.565V48.3893H237.214L213.775 11.9713L218.186 10.9002V48.3893H202.434V1.13416H223.415L246.224 36.544Z" fill="#CEFF43"/>
<path d="M178.622 1.13416H194.878V48.3893H178.622V1.13416Z" fill="#CEFF43"/>
<path d="M145.654 1.13416V41.2065L138.345 33.8977H173.503V48.3893H129.398V1.13416H145.654Z" fill="#CEFF43"/>
<path d="M96.4296 1.13416V41.2065L89.1208 33.8977H124.279V48.3893H80.1738V1.13416H96.4296Z" fill="#CEFF43"/>
<path d="M56.3616 1.13416H72.6173V48.3893H56.3616V1.13416Z" fill="#CEFF43"/>
<path d="M0 48.3893V1.13416H16.1297V35.7249L12.0343 32.2595L35.5358 1.13416H52.5477L14.7436 48.3893H0ZM22.6825 26.6519L34.6538 17.2639L53.1778 48.3893H34.7798L22.6825 26.6519Z" fill="#CEFF43"/>
<path d="M403.732 66.7384H419.988V107H403.732V66.7384ZM386.721 59.7447H437V74.2363H386.721V59.7447Z" fill="#CEFF43"/>
<path d="M346.308 79.9699H362.186C363.782 79.9699 365.021 79.5918 365.903 78.8358C366.785 78.0797 367.226 76.9876 367.226 75.5594C367.226 74.1313 366.785 73.0391 365.903 72.2831C365.021 71.527 363.782 71.1489 362.186 71.1489H344.04L351.349 63.8401V107H335.093V59.7447H364.706C368.487 59.7447 371.784 60.4168 374.598 61.7609C377.455 63.0631 379.66 64.8902 381.214 67.2425C382.81 69.5948 383.608 72.3671 383.608 75.5594C383.608 78.6677 382.81 81.419 381.214 83.8133C379.66 86.1656 377.455 87.9928 374.598 89.2949C371.784 90.597 368.487 91.2481 364.706 91.2481H346.308V79.9699ZM351.853 84.8844H369.81L385.498 107H366.911L351.853 84.8844Z" fill="#CEFF43"/>
<path d="M283.547 99.061V86.1446H315.744V99.061H283.547ZM310.766 59.7447L331.495 107H314.169L297.85 66.9275H302.008L285.689 107H268.363L289.092 59.7447H310.766Z" fill="#CEFF43"/>
<path d="M252.242 59.7447C256.526 59.7447 260.181 60.4588 263.205 61.8869C266.271 63.2731 268.603 65.2683 270.199 67.8726C271.795 70.4349 272.593 73.4592 272.593 76.9456C272.593 80.4319 271.795 83.4773 270.199 86.0815C268.603 88.6438 266.271 90.639 263.205 92.0672C260.181 93.4533 256.526 94.1464 252.242 94.1464H232.269V81.482H251.171C252.767 81.482 254.006 81.083 254.888 80.2849C255.77 79.4868 256.211 78.3737 256.211 76.9456C256.211 75.4754 255.77 74.3623 254.888 73.6062C254.006 72.8081 252.767 72.4091 251.171 72.4091H233.655L240.964 65.1003V107H224.708V59.7447H252.242Z" fill="#CEFF43"/>
<path d="M162.768 84.0092H215.273V99.7609H162.768V84.0092Z" fill="#CEFF43"/>
<path d="M0.665283 84.0092H53.171V99.7609H0.665283V84.0092Z" fill="#CEFF43"/>
<path d="M73.5079 95.6156L63.0067 105.564L73.5079 115.513L84.009 105.564L73.5079 95.6156Z" fill="#CEFF43"/>
<path d="M102.386 63.0068V83.04H97.1355V68.2574H86.6343V104.068L85.8139 104.842L73.5079 116.502L59.1919 102.94L73.5079 89.3725L75.3128 91.0851L81.3838 96.833V63.0068H102.386ZM66.8216 102.935L73.5079 109.267L80.189 102.935L73.5079 96.6023L66.8216 102.935Z" fill="#CEFF43"/>
<path d="M99.7608 95.6156L89.2596 105.564L99.7608 115.513L110.262 105.564L99.7608 95.6156Z" fill="#CEFF43"/>
<path d="M128.639 63.0068V83.04H123.388V68.2574H112.887V104.068L112.067 104.842L99.7607 116.502L85.4447 102.94L99.7607 89.3725L101.566 91.0851L107.637 96.833V63.0068H128.639ZM93.0744 102.935L99.7607 109.267L106.442 102.935L99.7607 96.6023L93.0744 102.935Z" fill="#CEFF43"/>
<path d="M115.512 105.564L126.014 95.6156L136.515 105.564L126.014 115.513L115.512 105.564Z" fill="#CEFF43"/>
<path d="M154.892 63.0068V83.04H149.641V68.2574H139.14V104.068L138.32 104.842L126.014 116.502L111.698 102.94L126.014 89.3725L127.819 91.0851L133.889 96.833V63.0068H154.892ZM119.327 102.935L126.014 109.267L132.695 102.935L126.014 96.6023L119.327 102.935Z" fill="#CEFF43"/>
</svg>
